<svg width="30" height="40" viewBox="0 0 30 40" fill="none" xmlns="http://www.w3.org/2000/svg">
<path d="M30 35C30 36.3261 29.4732 37.5979 28.5355 38.5355C27.5979 39.4732 26.3261 40 25 40H5C3.67392 40 2.40215 39.4732 1.46447 38.5355C0.526784 37.5979 0 36.3261 0 35V5C0 3.67392 0.526784 2.40215 1.46447 1.46447C2.40215 0.526784 3.67392 0 5 0L18.75 0L30 11.25V35ZM5 2.5C4.33696 2.5 3.70107 2.76339 3.23223 3.23223C2.76339 3.70107 2.5 4.33696 2.5 5V30L8.06 24.44C8.25704 24.2434 8.51405 24.1182 8.79029 24.0843C9.06653 24.0503 9.34621 24.1095 9.585 24.2525L15 27.5L20.3925 19.95C20.498 19.8024 20.6344 19.6796 20.7921 19.59C20.9499 19.5005 21.1252 19.4463 21.306 19.4313C21.4868 19.4164 21.6687 19.4409 21.839 19.5033C22.0094 19.5656 22.1641 19.6643 22.2925 19.7925L27.5 25V11.25H22.5C21.5054 11.25 20.5516 10.8549 19.8483 10.1517C19.1451 9.44839 18.75 8.49456 18.75 7.5V2.5H5Z" fill="#E5E5E5"/>
</svg>
